<svg xmlns="http://www.w3.org/2000/svg" xmlns:xlink="http://www.w3.org/1999/xlink" viewBox="0 0 2500 1400"><defs><style>.cls-1{fill:#edbe00;}.cls-2{fill:url(#linear-gradient);}.cls-3{fill:#0c0c0c;}.cls-4{fill:url(#linear-gradient-2);}.cls-5{fill:none;}</style><linearGradient id="linear-gradient" x1="583.44" y1="491.56" x2="881.61" y2="581.95" gradientUnits="userSpaceOnUse"><stop offset="0" stop-color="#00a2e9"/><stop offset="1" stop-color="#2b1972"/></linearGradient><linearGradient id="linear-gradient-2" x1="679.66" y1="872.14" x2="878.44" y2="591.97" gradientUnits="userSpaceOnUse"><stop offset="0" stop-color="#ff2800"/><stop offset="1" stop-color="#ebbd00"/></linearGradient></defs><g id="Layer_2" data-name="Layer 2"><g id="Layer_2-2" data-name="Layer 2"><path class="cls-1" d="M703.78,654.54h49.76v80.17l114-145.52h72.89v5.48H936.9A21,21,0,0,0,920,602.34c-.34.41-.66.82-1,1.25-.06.08-.13.15-.17.21L730.37,844.38a33.79,33.79,0,0,1-26.59,12.94h0v-164c-.26-5.26-2.67-33.31-25.49-33.31h-3.58v-5.48Z"/><path class="cls-2" d="M867.58,589.19,904,542.68H806.09a33.08,33.08,0,0,0-26,12.67l-26.51,33.84Z"/><path class="cls-3" d="M996.13,712.16a28.08,28.08,0,0,1-6.58,11.89,26,26,0,0,1-11.63,6.75,62.08,62.08,0,0,1-17.29,2.1h-2.86v-5.56q21.91-2.19,21.92-27.15V625.32H964.17v-7.08h34.07v76.39A63.62,63.62,0,0,1,996.13,712.16Z"/><path class="cls-3" d="M1032,620.94l32.71,83.64,32.71-83.64a3.94,3.94,0,0,1,4-2.7h6.07l-45.36,113.65h-5.9l-45.36-113.65h17A4.12,4.12,0,0,1,1032,620.94Z"/><path class="cls-3" d="M1211,638a49.42,49.42,0,0,0-14.33-9.7,37.94,37.94,0,0,0-15.18-3.28q-8.26,0-13.07,3.62a11.87,11.87,0,0,0-4.8,10q0,7.43,4.64,12a43.7,43.7,0,0,0,11.55,7.92q6.92,3.38,15,6.41a74.67,74.67,0,0,1,15,7.59,41.67,41.67,0,0,1,11.55,11.29q4.63,6.75,4.64,17.71a30,30,0,0,1-2.87,13.41,29.22,29.22,0,0,1-7.84,9.86,33.43,33.43,0,0,1-11.89,6.07,53.18,53.18,0,0,1-15,2,64.82,64.82,0,0,1-22.77-4.13,51.89,51.89,0,0,1-18.55-11.38l10-11a61.26,61.26,0,0,0,18.47,13.15,47.25,47.25,0,0,0,19.64,4.56q9.1,0,14.17-4t5.05-11.47a16.3,16.3,0,0,0-4.63-12,43.43,43.43,0,0,0-11.64-8.1q-7-3.45-15.09-6.57a87.74,87.74,0,0,1-15.09-7.51,40.62,40.62,0,0,1-11.64-10.87q-4.63-6.49-4.63-16.78a29.34,29.34,0,0,1,2.53-12.31,27.09,27.09,0,0,1,7.16-9.53,33.16,33.16,0,0,1,11.22-6.15,45.34,45.34,0,0,1,14.5-2.2,60.35,60.35,0,0,1,17.87,2.7,52.38,52.38,0,0,1,15.51,7.59Z"/><path class="cls-3" d="M1243,674a38.65,38.65,0,0,1,8.69-13.15,39.17,39.17,0,0,1,13.23-8.52,45.81,45.81,0,0,1,16.95-3,46.42,46.42,0,0,1,17,3,38.06,38.06,0,0,1,22,21.67,44.16,44.16,0,0,1,3.12,16.78,43.48,43.48,0,0,1-3.12,16.69,39.64,39.64,0,0,1-8.69,13.15,38.29,38.29,0,0,1-13.32,8.6,46.22,46.22,0,0,1-17,3,45.6,45.6,0,0,1-16.95-3,38.48,38.48,0,0,1-13.23-8.6,39.64,39.64,0,0,1-8.69-13.15,43.48,43.48,0,0,1-3.12-16.69A44.16,44.16,0,0,1,1243,674Zm17.71,27.4a45.65,45.65,0,0,0,5.39,12.9,29.54,29.54,0,0,0,8.1,8.69,17.32,17.32,0,0,0,10,3.2q9.45,0,15.09-8.26t5.65-22.09a62.33,62.33,0,0,0-1.94-15.94,47.25,47.25,0,0,0-5.31-12.81,27.5,27.5,0,0,0-8-8.6,17.63,17.63,0,0,0-10-3.12q-9.45,0-15.18,8.18t-5.73,21.83A62.8,62.8,0,0,0,1260.69,701.37Z"/><path class="cls-3" d="M1344.66,726.92q-4.31-4.3-4.3-12.4V607.28h.84l14.16,5.56a4.35,4.35,0,0,1,2.87,4.39v98.31q0,9.11,8.09,10.11v5.57h-8.93Q1349,731.22,1344.66,726.92Z"/><path class="cls-3" d="M1435.46,650.28h17.87v81.44h-1.85l-12.65-5.56a4.47,4.47,0,0,1-2.87-4.55V713h-.5q-14.67,19.22-31.7,19.22-11.31,0-17.62-6.75t-6.33-18.88V650.28h17.88v54.3q0,7.41,3.45,11.38t9.87,4a23.25,23.25,0,0,0,12.81-4,43.79,43.79,0,0,0,11.64-11.63Z"/><path class="cls-3" d="M1496.16,656.18v57q0,11,10.79,12.47v5.57H1496.5q-8.77,0-13.49-5.14t-4.72-14.59V656.18h-11.81v-5.9h11.81V621.61h.84l14.16,5.57a4.35,4.35,0,0,1,2.87,4.38v18.72h14.67v5.9Z"/><path class="cls-3" d="M1542.7,641h-.85l-14.16-5.56a4.36,4.36,0,0,1-2.87-4.38V616.89h.84l14.17,5.57a4.34,4.34,0,0,1,2.87,4.38Zm0,90.22h-17.88v-82h.84l14.17,5.56a4.36,4.36,0,0,1,2.87,4.39Z"/><path class="cls-3" d="M1562.34,674a38.63,38.63,0,0,1,8.68-13.15,39.12,39.12,0,0,1,13.24-8.52,45.73,45.73,0,0,1,17-3,46.42,46.42,0,0,1,17,3,38,38,0,0,1,22,21.67,44.16,44.16,0,0,1,3.12,16.78,43.48,43.48,0,0,1-3.12,16.69,39.62,39.62,0,0,1-8.68,13.15,38.29,38.29,0,0,1-13.32,8.6,46.22,46.22,0,0,1-17,3,45.53,45.53,0,0,1-17-3,38.42,38.42,0,0,1-13.24-8.6,39.62,39.62,0,0,1-8.68-13.15,43.48,43.48,0,0,1-3.12-16.69A44.16,44.16,0,0,1,1562.34,674Zm17.7,27.4a45.66,45.66,0,0,0,5.4,12.9,29.38,29.38,0,0,0,8.09,8.69,17.35,17.35,0,0,0,10,3.2q9.43,0,15.09-8.26t5.65-22.09a62.33,62.33,0,0,0-1.94-15.94,47.56,47.56,0,0,0-5.31-12.81,27.5,27.5,0,0,0-8-8.6,17.66,17.66,0,0,0-10-3.12q-9.43,0-15.17,8.18t-5.74,21.83A63.25,63.25,0,0,0,1580,701.37Z"/><path class="cls-3" d="M1659.71,731.22v-82h.85l13.82,5.39a4.84,4.84,0,0,1,2.7,4.72v9.11h.51q14.67-19.23,31.87-19.22,11.13,0,17.45,6.74t6.32,18.89v56.32h-17.87V676.75q0-7.25-3.46-11.21t-9.69-4q-13.5,0-24.62,15.68v54Z"/><path class="cls-3" d="M1757,711.49a40.89,40.89,0,0,0,12.65,10.71,30,30,0,0,0,14,3.62c4,0,7.28-1,9.69-3A9.6,9.6,0,0,0,1797,715a10.45,10.45,0,0,0-3.29-8.18,30.9,30.9,0,0,0-8.26-5.14q-5-2.19-10.71-4.22a56.61,56.61,0,0,1-10.71-5.06,26.45,26.45,0,0,1-8.26-7.92q-3.29-4.89-3.29-12.82a20.23,20.23,0,0,1,2-9,20.89,20.89,0,0,1,5.64-7.08,27.41,27.41,0,0,1,8.69-4.64,35.12,35.12,0,0,1,11.13-1.68,50.4,50.4,0,0,1,14.58,2.1,33.48,33.48,0,0,1,11.72,6l-7.42,10.12a37.91,37.91,0,0,0-10.11-8.6,21.59,21.59,0,0,0-10.8-3.21,13.23,13.23,0,0,0-8.6,2.62,8.23,8.23,0,0,0-3.2,6.66,10,10,0,0,0,3.29,7.84,29.56,29.56,0,0,0,8.26,5.06q5,2.1,10.71,4.13a51.13,51.13,0,0,1,10.71,5.23,27.57,27.57,0,0,1,8.26,8.26q3.29,5.06,3.29,13.15a20.72,20.72,0,0,1-8.27,17.12q-8.25,6.5-21.75,6.49a57.26,57.26,0,0,1-17.7-2.78,38,38,0,0,1-14-7.67Z"/><polygon class="cls-4" points="867.58 589.19 753.54 734.71 753.54 779.15 904.03 589.19 867.58 589.19"/><path class="cls-1" d="M860.05,781.73l-13-19.85h6l10.23,16h-2.76l10.24-16h5.9l-13.09,19.85Zm-.76,13.37V778.44h5.18V795.1Z"/><path class="cls-1" d="M898.7,795.58a16.65,16.65,0,0,1-12-5,17.32,17.32,0,0,1-3.62-5.44,17.61,17.61,0,0,1,0-13.33,17.42,17.42,0,0,1,3.59-5.43,17.06,17.06,0,0,1,18.57-3.64,16.82,16.82,0,0,1,5.35,3.64,17.11,17.11,0,0,1,4.93,12.14,16.94,16.94,0,0,1-1.31,6.66,17.33,17.33,0,0,1-3.6,5.43,16.73,16.73,0,0,1-5.33,3.66A16.17,16.17,0,0,1,898.7,795.58Zm-.1-5a11.53,11.53,0,0,0,6-1.55,11,11,0,0,0,4.09-4.31,13,13,0,0,0,1.5-6.33,13.45,13.45,0,0,0-.85-4.88,11.54,11.54,0,0,0-2.41-3.83,10.7,10.7,0,0,0-3.66-2.5,12.24,12.24,0,0,0-4.69-.88,11.53,11.53,0,0,0-6,1.53,10.85,10.85,0,0,0-4.1,4.26,12.87,12.87,0,0,0-1.5,6.3,13.84,13.84,0,0,0,.86,4.93,10.88,10.88,0,0,0,6.07,6.35A11.57,11.57,0,0,0,898.6,790.63Z"/><path class="cls-1" d="M938.72,795.58a13.35,13.35,0,0,1-6.71-1.69,12.5,12.5,0,0,1-4.66-4.64,13.07,13.07,0,0,1-1.72-6.67v-20.7h5.14v20.66a8.38,8.38,0,0,0,1.05,4.28,7.35,7.35,0,0,0,2.86,2.81,8.76,8.76,0,0,0,8.09,0,7.09,7.09,0,0,0,2.78-2.81,8.5,8.5,0,0,0,1-4.26v-20.7h5.14v20.75a13.09,13.09,0,0,1-1.69,6.64,12.49,12.49,0,0,1-4.62,4.62A13.2,13.2,0,0,1,938.72,795.58Z"/><path class="cls-1" d="M963.52,795.1V761.88h5.14V795.1ZM967,780.87v-4.24h8.57a5.75,5.75,0,0,0,4.12-1.38,5,5,0,0,0,1.45-3.76,5.05,5.05,0,0,0-1.43-3.66,5.41,5.41,0,0,0-4.09-1.48H967v-4.47h8.85a11.59,11.59,0,0,1,5.5,1.24A9,9,0,0,1,985,766.5a9.29,9.29,0,0,1,1.29,4.9,9.52,9.52,0,0,1-1.29,5,8.52,8.52,0,0,1-3.64,3.3,12.21,12.21,0,0,1-5.5,1.17Zm15,14.23-11.75-14.56,4.81-1.76,13.47,16.32Z"/><path class="cls-1" d="M1023.54,795.1l-13.42-33.22h5.61l10.62,27.27h-2l10.71-27.27h5.53l-13.47,33.22Z"/><path class="cls-1" d="M1050.33,795.1V761.88h5.14V795.1Z"/><path class="cls-1" d="M1076.23,795.58a14.38,14.38,0,0,1-6.67-1.43,15.32,15.32,0,0,1-5-4.19l3.53-3.47a10.41,10.41,0,0,0,3.37,3.16,9.75,9.75,0,0,0,4.91,1.12,7.65,7.65,0,0,0,4.49-1.19,3.79,3.79,0,0,0,1.69-3.29,4.31,4.31,0,0,0-.85-2.78,6.78,6.78,0,0,0-2.26-1.78,21.35,21.35,0,0,0-3.12-1.27c-1.14-.36-2.28-.77-3.4-1.23a14.36,14.36,0,0,1-3.12-1.74,7.77,7.77,0,0,1-2.29-2.71,9.28,9.28,0,0,1-.85-4.24,8.24,8.24,0,0,1,1.43-4.92,9.23,9.23,0,0,1,3.85-3.12,13.16,13.16,0,0,1,5.47-1.1,12.91,12.91,0,0,1,5.83,1.29,12.38,12.38,0,0,1,4.22,3.28l-3.53,3.52a9.88,9.88,0,0,0-3-2.47,7.9,7.9,0,0,0-3.64-.81,6.64,6.64,0,0,0-4,1,3.41,3.41,0,0,0-1.45,3,3.63,3.63,0,0,0,.85,2.52,7.13,7.13,0,0,0,2.26,1.62,31.2,31.2,0,0,0,3.12,1.24c1.14.38,2.28.81,3.4,1.28a13.54,13.54,0,0,1,3.1,1.83,8.62,8.62,0,0,1,2.28,2.88,9.85,9.85,0,0,1,.88,4.43,8.62,8.62,0,0,1-3.11,7Q1081.56,795.58,1076.23,795.58Z"/><path class="cls-1" d="M1098.22,795.1V761.88h5.14V795.1Z"/><path class="cls-1" d="M1130.77,795.58a16.65,16.65,0,0,1-12-5,17.29,17.29,0,0,1-3.61-5.44,17.61,17.61,0,0,1,0-13.33,17.42,17.42,0,0,1,3.59-5.43,17,17,0,0,1,18.56-3.64,16.86,16.86,0,0,1,5.36,3.64,17.17,17.17,0,0,1,3.61,5.45,17,17,0,0,1,1.31,6.69,16.77,16.77,0,0,1-1.31,6.66,17.31,17.31,0,0,1-3.59,5.43,16.73,16.73,0,0,1-5.33,3.66A16.18,16.18,0,0,1,1130.77,795.58Zm-.09-5a11.55,11.55,0,0,0,6-1.55,11,11,0,0,0,4.09-4.31,13,13,0,0,0,1.5-6.33,13.45,13.45,0,0,0-.86-4.88,11.52,11.52,0,0,0-2.4-3.83,10.64,10.64,0,0,0-3.67-2.5,12.19,12.19,0,0,0-4.68-.88,11.54,11.54,0,0,0-6,1.53,10.83,10.83,0,0,0-4.09,4.26,12.87,12.87,0,0,0-1.5,6.3,13.84,13.84,0,0,0,.86,4.93,10.88,10.88,0,0,0,6.07,6.35A11.54,11.54,0,0,0,1130.68,790.63Z"/><path class="cls-1" d="M1158.09,795.1V761.88h3.57l1.57,6V795.1Zm23,0-20-26.37.62-6.85,20.09,26.37Zm0,0-1.52-5.57V761.88h5.14V795.1Z"/><path class="cls-1" d="M1196.21,800.57l3.15-6,1.71-.42a3,3,0,0,1-.67.92,1.25,1.25,0,0,1-.9.36,2.72,2.72,0,0,1-2-.9,3.1,3.1,0,0,1-.91-2.29,3.49,3.49,0,0,1,1-2.47,3.34,3.34,0,0,1,4.86,0,3.36,3.36,0,0,1,1,2.47,4.58,4.58,0,0,1-.26,1.43,15.42,15.42,0,0,1-.88,2l-3.42,6.28Z"/><path class="cls-1" d="M1244.38,795.58a16.48,16.48,0,0,1-6.64-1.34,16.66,16.66,0,0,1-5.38-3.69,17.29,17.29,0,0,1-3.61-5.44,17.61,17.61,0,0,1,0-13.33,17.42,17.42,0,0,1,3.59-5.43,17,17,0,0,1,18.56-3.64,17.33,17.33,0,0,1,9,22.44,17.31,17.31,0,0,1-3.59,5.43,16.73,16.73,0,0,1-5.33,3.66A16.18,16.18,0,0,1,1244.38,795.58Zm-.09-5a11.55,11.55,0,0,0,6-1.55,11,11,0,0,0,4.09-4.31,13,13,0,0,0,1.5-6.33,13.45,13.45,0,0,0-.86-4.88,11.52,11.52,0,0,0-2.4-3.83,10.64,10.64,0,0,0-3.67-2.5,12.19,12.19,0,0,0-4.68-.88,11.54,11.54,0,0,0-6,1.53,10.83,10.83,0,0,0-4.09,4.26,12.87,12.87,0,0,0-1.5,6.3,13.84,13.84,0,0,0,.86,4.93,10.88,10.88,0,0,0,6.07,6.35A11.54,11.54,0,0,0,1244.29,790.63Z"/><path class="cls-1" d="M1284.41,795.58a13.32,13.32,0,0,1-6.71-1.69,12.6,12.6,0,0,1-4.67-4.64,13.06,13.06,0,0,1-1.71-6.67v-20.7h5.14v20.66a8.38,8.38,0,0,0,1,4.28,7.4,7.4,0,0,0,2.85,2.81,8.32,8.32,0,0,0,4.05,1,8.19,8.19,0,0,0,4-1,7.05,7.05,0,0,0,2.79-2.81,8.61,8.61,0,0,0,1-4.26v-20.7h5.14v20.75a13,13,0,0,1-1.69,6.64,12.39,12.39,0,0,1-4.61,4.62A13.22,13.22,0,0,1,1284.41,795.58Z"/><path class="cls-1" d="M1309.21,795.1V761.88h5.14V795.1Zm3.52-14.23v-4.24h8.57a5.74,5.74,0,0,0,4.11-1.38,4.93,4.93,0,0,0,1.45-3.76,5,5,0,0,0-1.42-3.66,5.44,5.44,0,0,0-4.1-1.48h-8.61v-4.47h8.85a11.59,11.59,0,0,1,5.5,1.24,9,9,0,0,1,3.64,3.38,9.28,9.28,0,0,1,1.28,4.9,9.52,9.52,0,0,1-1.28,5,8.57,8.57,0,0,1-3.64,3.3,12.21,12.21,0,0,1-5.5,1.17Zm15,14.23L1316,780.54l4.81-1.76,13.47,16.32Z"/><path class="cls-1" d="M1355,766.59v-4.71h27.08v4.71Zm11,28.51V762.83h5.19V795.1Z"/><path class="cls-1" d="M1391.83,795.1V761.88H1397V795.1Zm3.52-28.51v-4.71h18.52v4.71Zm0,13.8v-4.52h17.14v4.52Zm0,14.71v-4.71h18.76v4.71Z"/><path class="cls-1" d="M1439.1,795.58a16.75,16.75,0,0,1-6.67-1.31,16.29,16.29,0,0,1-5.33-3.67,16.49,16.49,0,0,1-3.52-5.45,17.65,17.65,0,0,1-1.24-6.66,17.88,17.88,0,0,1,1.24-6.69,16.06,16.06,0,0,1,3.5-5.42,16.64,16.64,0,0,1,12-5,16.83,16.83,0,0,1,7,1.34,17.4,17.4,0,0,1,5.24,3.61l-3.52,3.52a10.67,10.67,0,0,0-3.69-2.59,12.66,12.66,0,0,0-5-.93,11.78,11.78,0,0,0-4.57.88,10.71,10.71,0,0,0-3.64,2.5,11.1,11.1,0,0,0-2.38,3.86,14.71,14.71,0,0,0,0,9.8,11.1,11.1,0,0,0,2.38,3.86,10.71,10.71,0,0,0,3.64,2.5,11.89,11.89,0,0,0,4.62.88,12.82,12.82,0,0,0,5.21-1,10.85,10.85,0,0,0,3.69-2.61l3.52,3.52a16.72,16.72,0,0,1-5.38,3.66A17.61,17.61,0,0,1,1439.1,795.58Z"/><path class="cls-1" d="M1461.37,795.1V761.88h5.14V795.1Zm3.52-14.85v-4.71h18.85v4.71Zm17.71,14.85V761.88h5.14V795.1Z"/><path class="cls-1" d="M1523.53,795.58a14.37,14.37,0,0,1-6.66-1.43,15.32,15.32,0,0,1-4.95-4.19l3.52-3.47a10.44,10.44,0,0,0,3.38,3.16,9.68,9.68,0,0,0,4.9,1.12,7.71,7.71,0,0,0,4.5-1.19,3.82,3.82,0,0,0,1.69-3.29,4.31,4.31,0,0,0-.86-2.78,6.68,6.68,0,0,0-2.26-1.78,21.35,21.35,0,0,0-3.12-1.27c-1.14-.36-2.27-.77-3.4-1.23a14.36,14.36,0,0,1-3.12-1.74,7.64,7.64,0,0,1-2.28-2.71,9.27,9.27,0,0,1-.86-4.24,8.31,8.31,0,0,1,1.43-4.92,9.29,9.29,0,0,1,3.85-3.12,13.21,13.21,0,0,1,5.48-1.1,12.94,12.94,0,0,1,5.83,1.29,12.34,12.34,0,0,1,4.21,3.28l-3.52,3.52a10,10,0,0,0-3-2.47,8,8,0,0,0-3.65-.81,6.66,6.66,0,0,0-4,1,3.41,3.41,0,0,0-1.45,3,3.59,3.59,0,0,0,.86,2.52,7,7,0,0,0,2.26,1.62,30.06,30.06,0,0,0,3.11,1.24c1.15.38,2.28.81,3.41,1.28a13.69,13.69,0,0,1,3.09,1.83,8.53,8.53,0,0,1,2.29,2.88,10,10,0,0,1,.88,4.43,8.6,8.6,0,0,1-3.12,7Q1528.86,795.58,1523.53,795.58Z"/><path class="cls-1" d="M1561,795.58a16.65,16.65,0,0,1-12-5,17.32,17.32,0,0,1-3.62-5.44,17.61,17.61,0,0,1,0-13.33,17.28,17.28,0,0,1,3.6-5.43,16.4,16.4,0,0,1,5.33-3.64,17.36,17.36,0,0,1,13.23,0,16.82,16.82,0,0,1,5.35,3.64,17.47,17.47,0,0,1,3.62,18.8,17.31,17.31,0,0,1-3.59,5.43,16.84,16.84,0,0,1-5.33,3.66A16.25,16.25,0,0,1,1561,795.58Zm-.1-5a11.53,11.53,0,0,0,6-1.55,11.05,11.05,0,0,0,4.1-4.31,13,13,0,0,0,1.5-6.33,13.45,13.45,0,0,0-.86-4.88,11.38,11.38,0,0,0-2.41-3.83,10.7,10.7,0,0,0-3.66-2.5,12.21,12.21,0,0,0-4.69-.88,11.53,11.53,0,0,0-6,1.53,10.76,10.76,0,0,0-4.09,4.26,12.87,12.87,0,0,0-1.5,6.3,13.84,13.84,0,0,0,.85,4.93,11,11,0,0,0,6.07,6.35A11.57,11.57,0,0,0,1560.89,790.63Z"/><path class="cls-1" d="M1588.31,795.1V761.88h5.14V795.1Zm3.52,0v-4.71h17.51v4.71Z"/><path class="cls-1" d="M1630.86,795.58a13.3,13.3,0,0,1-6.71-1.69,12.53,12.53,0,0,1-4.67-4.64,13.06,13.06,0,0,1-1.71-6.67v-20.7h5.14v20.66a8.38,8.38,0,0,0,1,4.28,7.33,7.33,0,0,0,2.85,2.81,8.32,8.32,0,0,0,4,1,8.19,8.19,0,0,0,4-1,7.05,7.05,0,0,0,2.79-2.81,8.61,8.61,0,0,0,1-4.26v-20.7h5.14v20.75a13,13,0,0,1-1.69,6.64,12.39,12.39,0,0,1-4.61,4.62A13.25,13.25,0,0,1,1630.86,795.58Z"/><path class="cls-1" d="M1652.75,766.59v-4.71h27.08v4.71Zm11,28.51V762.83h5.19V795.1Z"/><path class="cls-1" d="M1689.54,795.1V761.88h5.14V795.1Z"/><path class="cls-1" d="M1722.1,795.58a16.65,16.65,0,0,1-12-5,17.49,17.49,0,0,1-3.62-5.44,17.61,17.61,0,0,1,0-13.33,17.45,17.45,0,0,1,3.6-5.43,17,17,0,0,1,18.56-3.64,16.82,16.82,0,0,1,5.35,3.64,17.47,17.47,0,0,1,3.62,18.8,17.31,17.31,0,0,1-3.59,5.43,16.84,16.84,0,0,1-5.33,3.66A16.18,16.18,0,0,1,1722.1,795.58Zm-.1-5a11.53,11.53,0,0,0,6-1.55,11.05,11.05,0,0,0,4.1-4.31,13,13,0,0,0,1.5-6.33,13.45,13.45,0,0,0-.86-4.88,11.52,11.52,0,0,0-2.4-3.83,10.83,10.83,0,0,0-3.67-2.5,12.21,12.21,0,0,0-4.69-.88,11.53,11.53,0,0,0-6,1.53,10.83,10.83,0,0,0-4.09,4.26,12.87,12.87,0,0,0-1.5,6.3,13.84,13.84,0,0,0,.85,4.93,11.2,11.2,0,0,0,2.41,3.85,11,11,0,0,0,3.66,2.5A11.57,11.57,0,0,0,1722,790.63Z"/><path class="cls-1" d="M1749.42,795.1V761.88H1753l1.57,6V795.1Zm23,0-20-26.37.62-6.85,20.08,26.37Zm0,0-1.53-5.57V761.88H1776V795.1Z"/><path class="cls-1" d="M1796.78,795.58a14.38,14.38,0,0,1-6.67-1.43,15.32,15.32,0,0,1-4.95-4.19l3.53-3.47a10.41,10.41,0,0,0,3.37,3.16,9.75,9.75,0,0,0,4.91,1.12,7.65,7.65,0,0,0,4.49-1.19,3.79,3.79,0,0,0,1.69-3.29,4.31,4.31,0,0,0-.85-2.78,6.78,6.78,0,0,0-2.26-1.78,21.35,21.35,0,0,0-3.12-1.27c-1.14-.36-2.28-.77-3.4-1.23a14.36,14.36,0,0,1-3.12-1.74,7.77,7.77,0,0,1-2.29-2.71,9.28,9.28,0,0,1-.85-4.24,8.24,8.24,0,0,1,1.43-4.92,9.23,9.23,0,0,1,3.85-3.12,13.16,13.16,0,0,1,5.47-1.1,12.91,12.91,0,0,1,5.83,1.29,12.38,12.38,0,0,1,4.22,3.28l-3.53,3.52a9.88,9.88,0,0,0-3-2.47,7.9,7.9,0,0,0-3.64-.81,6.64,6.64,0,0,0-4,1,3.41,3.41,0,0,0-1.45,3,3.63,3.63,0,0,0,.85,2.52,7.13,7.13,0,0,0,2.26,1.62,31.2,31.2,0,0,0,3.12,1.24c1.14.38,2.28.81,3.4,1.28a13.54,13.54,0,0,1,3.1,1.83,8.62,8.62,0,0,1,2.28,2.88,9.85,9.85,0,0,1,.88,4.43,8.6,8.6,0,0,1-3.12,7C1803.15,794.72,1800.33,795.58,1796.78,795.58Z"/><path class="cls-1" d="M1822,795.58a3.15,3.15,0,0,1-2.4-1,3.6,3.6,0,0,1,0-4.83,3.44,3.44,0,0,1,4.81,0,3.6,3.6,0,0,1,0,4.83A3.16,3.16,0,0,1,1822,795.58Z"/><rect class="cls-5" width="2500" height="1400"/></g></g></svg>