<svg width="275" height="275" viewBox="0 0 275 275" fill="none" xmlns="http://www.w3.org/2000/svg">
<path d="M157.539 78.0181L177.1 53.0371H124.512C121.821 53.0398 119.165 53.6537 116.746 54.8326C114.327 56.0115 112.207 57.7245 110.547 59.8423L96.3081 78.0181H157.539Z" fill="url(#paint0_linear_1_102)"/>
<path d="M80.9575 113.118H107.684V156.178L168.915 78.0181H208.064V80.9614H206.168C204.441 80.9067 202.724 81.2498 201.15 81.9641C199.576 82.6784 198.188 83.7448 197.091 85.0811C196.909 85.3013 196.737 85.5215 196.554 85.7525C196.522 85.7954 196.484 85.833 196.463 85.8652L95.2392 215.083C93.5413 217.248 91.3733 218.999 88.8991 220.203C86.4248 221.407 83.7092 222.033 80.9575 222.033V133.947C80.8179 131.122 79.5234 116.056 67.2666 116.056H65.3438V113.113L80.9575 113.118Z" fill="#EDBE00"/>
<path d="M168.974 77.8976L107.722 156.216V180.134L188.551 77.8976H168.974Z" fill="url(#paint1_linear_1_102)"/>
<defs>
<linearGradient id="paint0_linear_1_102" x1="4.92432" y1="25.5801" x2="165.074" y2="74.1294" gradientUnits="userSpaceOnUse">
<stop stop-color="#00A2E9"/>
<stop offset="1" stop-color="#2B1972"/>
</linearGradient>
<linearGradient id="paint1_linear_1_102" x1="68.04" y1="230.181" x2="175.094" y2="79.5982" gradientUnits="userSpaceOnUse">
<stop stop-color="#FF2800"/>
<stop offset="1" stop-color="#EBBD00"/>
</linearGradient>
</defs>
</svg>
